<!DOCTYPE svg PUBLIC "-//W3C//DTD SVG 20010904//EN" "http://www.w3.org/TR/2001/REC-SVG-20010904/DTD/svg10.dtd">
<svg version="1.0" xmlns="http://www.w3.org/2000/svg" width="1600px" height="1600px" viewBox="0 0 16000 16000" preserveAspectRatio="xMidYMid meet">
<g id="layer101" fill="#071e28" stroke="none">
 <path d="M0 8000 l0 -8000 8000 0 8000 0 0 8000 0 8000 -8000 0 -8000 0 0 -8000z"/>
 </g>
<g id="layer102" fill="#fefefe" stroke="none">
 <path d="M3998 15993 c2201 -2 5803 -2 8005 0 2201 1 400 2 -4003 2 -4403 0 -6204 -1 -4002 -2z"/>
 <path d="M1035 14629 c-160 -21 -299 -76 -402 -159 -74 -60 -126 -135 -160 -231 -22 -62 -26 -91 -26 -179 0 -196 37 -293 253 -665 251 -433 347 -600 445 -770 54 -93 223 -386 375 -650 287 -497 423 -732 615 -1065 62 -107 138 -240 170 -295 73 -126 575 -995 725 -1255 62 -107 163 -283 225 -390 62 -107 188 -325 280 -485 92 -159 229 -396 303 -525 75 -129 176 -305 225 -390 50 -85 138 -238 197 -340 58 -102 158 -275 222 -385 739 -1280 686 -1189 972 -1685 103 -179 205 -354 226 -390 36 -61 115 -198 433 -750 71 -124 164 -283 205 -355 41 -71 158 -274 259 -450 224 -387 467 -808 538 -930 28 -49 112 -193 185 -320 149 -258 202 -336 287 -416 103 -97 197 -150 312 -175 83 -17 119 -17 202 0 154 33 302 137 418 296 54 73 40 49 961 1645 374 647 923 1599 1233 2135 154 267 371 643 482 835 111 193 228 395 260 450 32 55 101 174 153 265 197 342 657 1138 707 1225 29 50 102 176 162 280 163 283 517 897 678 1175 78 135 238 412 355 615 117 204 277 480 355 615 78 135 185 319 237 410 436 756 1001 1735 1186 2055 229 395 265 487 265 685 0 88 -4 117 -26 179 -79 224 -277 356 -585 391 -124 14 -1301 -3 -1677 -25 -733 -42 -1298 -118 -1824 -246 -1186 -289 -1996 -843 -2491 -1703 -253 -439 -426 -975 -515 -1591 -44 -306 -75 -711 -75 -981 l0 -134 -363 0 -364 0 -7 233 c-44 1467 -410 2483 -1151 3195 -539 518 -1278 862 -2270 1056 -114 22 -193 36 -450 76 -111 17 -518 60 -720 75 -371 27 -588 36 -1165 45 -667 11 -741 11 -835 -1z m2830 -3014 l74 -39 -72 -41 c-65 -37 -75 -47 -113 -114 l-42 -73 -38 72 c-36 67 -44 75 -111 112 -40 22 -73 41 -73 43 0 2 32 21 71 41 66 35 73 42 111 111 l41 75 39 -74 c37 -69 44 -76 113 -113z m8463 112 c36 -65 48 -77 99 -105 32 -17 64 -36 72 -41 9 -6 -6 -19 -58 -47 -67 -36 -75 -44 -112 -113 l-41 -74 -33 62 c-44 82 -47 85 -126 129 l-68 38 74 39 c70 38 76 44 112 112 21 40 39 73 40 73 0 0 19 -33 41 -73z m-6234 -1204 c33 -63 42 -71 108 -107 81 -44 81 -43 -18 -93 -44 -22 -57 -36 -88 -94 -21 -38 -41 -69 -45 -69 -4 0 -23 29 -42 65 -31 60 -40 69 -106 106 -40 22 -73 42 -73 44 0 2 33 22 73 44 65 36 75 46 107 105 19 37 38 66 42 66 4 0 23 -30 42 -67z m3897 2 c31 -60 40 -69 107 -107 41 -22 70 -44 65 -48 -4 -4 -37 -23 -72 -41 -54 -29 -67 -42 -91 -89 -51 -100 -50 -100 -92 -17 -34 65 -44 76 -90 99 -101 51 -101 50 -20 94 66 36 75 44 108 107 19 37 38 67 43 67 4 0 23 -29 42 -65z m-6170 -135 l96 -28 149 43 c81 25 150 42 152 40 2 -2 -14 -67 -37 -145 -23 -77 -41 -147 -41 -155 0 -8 18 -78 41 -155 23 -78 39 -143 37 -145 -2 -2 -70 16 -152 40 l-147 43 -147 -43 c-81 -24 -149 -42 -151 -39 -3 3 14 71 38 152 l43 148 -41 139 c-23 76 -41 144 -41 151 0 14 -10 16 201 -46z m8113 16 l148 -44 151 44 c83 24 152 44 153 44 1 0 -18 -69 -43 -154 l-45 -153 41 -138 c48 -161 49 -169 19 -159 -13 4 -80 24 -150 45 l-127 37 -148 -43 c-81 -24 -149 -42 -151 -40 -2 2 14 67 37 145 23 77 41 147 41 155 0 8 -18 76 -40 151 -37 128 -44 154 -37 154 1 0 69 -20 151 -44z m-3569 -755 c271 -7 291 -11 351 -69 29 -29 195 -278 283 -424 29 -49 57 -88 61 -88 5 0 39 6 77 14 195 41 646 99 1091 141 l72 7 0 -37 c0 -65 -40 -382 -71 -565 -98 -579 -243 -1008 -427 -1265 l-58 -80 18 -95 c88 -473 97 -932 27 -1340 -122 -715 -496 -1363 -1236 -2145 -259 -274 -378 -392 -418 -418 -85 -54 -200 -55 -290 -2 -42 24 -252 234 -494 494 -570 614 -910 1151 -1076 1698 -119 389 -159 809 -120 1258 8 94 17 184 19 200 3 17 17 103 32 192 l26 162 -35 43 c-181 222 -348 698 -446 1278 -40 237 -85 607 -75 619 12 14 909 -95 1143 -140 57 -11 104 -19 105 -17 1 2 33 55 71 118 79 134 218 345 249 378 31 35 98 72 147 81 52 10 618 12 974 2z m-3611 -831 c60 -17 62 -17 139 5 42 13 77 20 77 18 0 -3 -10 -38 -22 -79 l-21 -74 22 -76 c12 -42 20 -78 18 -80 -2 -2 -36 6 -76 18 -78 23 -69 24 -223 -19 -14 -4 -13 5 8 76 l25 80 -25 81 c-24 79 -24 81 -4 74 11 -3 48 -14 82 -24z m6431 -11 c17 0 58 9 93 20 42 13 62 16 62 8 0 -7 -9 -43 -20 -81 l-20 -70 25 -79 c21 -70 22 -79 7 -74 -154 43 -144 42 -223 19 -40 -12 -74 -20 -76 -18 -2 2 6 38 18 80 l22 76 -21 74 c-12 41 -22 76 -22 79 0 3 28 -4 63 -14 34 -11 76 -20 92 -20z m-5742 -1894 c43 -78 46 -81 130 -128 48 -27 85 -53 82 -58 -3 -4 -42 -27 -85 -50 -80 -41 -80 -42 -128 -130 -26 -49 -50 -89 -53 -89 -3 0 -27 39 -53 88 l-46 87 -91 49 -91 48 29 17 c15 10 56 32 89 50 57 30 65 38 110 121 27 49 52 86 56 82 4 -4 27 -43 51 -87z m5331 -116 c34 -18 74 -40 89 -50 l29 -17 -91 -48 -91 -49 -47 -89 c-54 -102 -49 -102 -114 21 -34 64 -41 71 -110 107 -114 60 -114 56 -12 112 74 42 92 57 112 94 13 25 35 65 49 89 l24 44 51 -91 c47 -85 54 -93 111 -123z"/>
 <path d="M7987 6473 c-4 -3 -7 -114 -7 -244 l0 -239 -242 -2 -243 -3 -3 -100 -3 -99 97 -216 c53 -118 120 -267 148 -330 29 -63 97 -215 152 -337 l99 -223 113 0 112 0 0 560 0 560 60 0 61 0 -3 93 -3 92 -57 3 -58 3 0 244 0 245 -108 0 c-60 0 -112 -3 -115 -7z m-7 -1035 c0 -199 -2 -359 -4 -357 -6 6 -286 702 -286 711 0 4 65 8 145 8 l145 0 0 -362z"/>
 </g>

</svg>