<?xml version="1.0" standalone="no"?><!-- Generator: Gravit.io --><svg xmlns="http://www.w3.org/2000/svg" xmlns:xlink="http://www.w3.org/1999/xlink" style="isolation:isolate" viewBox="0 0 1600 1600" width="1600" height="1600"><defs><clipPath id="_clipPath_DEqLYaHn596IbSljsf7JKgk5JToFD6FC"><rect width="1600" height="1600"/></clipPath></defs><g clip-path="url(#_clipPath_DEqLYaHn596IbSljsf7JKgk5JToFD6FC)"><g><path d=" M 0 800 L 0 0 L 800 0 L 1600 0 L 1600 800 L 1600 1600 L 800 1600 L 0 1600 L 0 800 Z " fill="rgb(0,0,0)"/></g><g><path d=" M 399.8 1599.3 C 619.9 1599.1 980.1 1599.1 1200.3 1599.3 C 1420.4 1599.4 1240.3 1599.5 800 1599.5 C 359.7 1599.5 179.6 1599.4 399.8 1599.3 Z " fill="rgb(254,254,254)"/><path d=" M 103.5 1462.9 C 87.5 1460.8 73.6 1455.3 63.3 1447 C 55.9 1441 50.7 1433.5 47.3 1423.9 C 45.1 1417.7 44.7 1414.8 44.7 1406 C 44.7 1386.4 48.4 1376.7 70 1339.5 C 95.1 1296.2 104.7 1279.5 114.5 1262.5 C 119.9 1253.2 136.8 1223.9 152 1197.5 C 180.7 1147.8 194.3 1124.3 213.5 1091 C 219.7 1080.3 227.3 1067 230.5 1061.5 C 237.8 1048.9 288 962 303 936 C 309.2 925.3 319.3 907.7 325.5 897 C 331.7 886.3 344.3 864.5 353.5 848.5 C 362.7 832.6 376.4 808.9 383.8 796 C 391.3 783.1 401.4 765.5 406.3 757 C 411.3 748.5 420.1 733.2 426 723 C 431.8 712.8 441.8 695.5 448.2 684.5 C 522.1 556.5 516.8 565.6 545.4 516 C 555.7 498.1 565.9 480.6 568 477 C 571.6 470.9 579.5 457.2 611.3 402 C 618.4 389.6 627.7 373.7 631.8 366.5 C 635.9 359.4 647.6 339.1 657.7 321.5 C 680.1 282.8 704.4 240.7 711.5 228.5 C 714.3 223.6 722.7 209.2 730 196.5 C 744.9 170.7 750.2 162.9 758.7 154.9 C 769 145.2 778.4 139.9 789.9 137.4 C 798.2 135.7 801.8 135.7 810.1 137.4 C 825.5 140.7 840.3 151.1 851.9 167 C 857.3 174.3 855.9 171.9 948 331.5 C 985.4 396.2 1040.3 491.4 1071.3 545 C 1086.7 571.7 1108.4 609.3 1119.5 628.5 C 1130.6 647.8 1142.3 668 1145.5 673.5 C 1148.7 679 1155.6 690.9 1160.8 700 C 1180.5 734.2 1226.5 813.8 1231.5 822.5 C 1234.4 827.5 1241.7 840.1 1247.7 850.5 C 1264 878.8 1299.4 940.2 1315.5 968 C 1323.3 981.5 1339.3 1009.2 1351 1029.5 C 1362.7 1049.9 1378.7 1077.5 1386.5 1091 C 1394.3 1104.5 1405 1122.9 1410.2 1132 C 1453.8 1207.6 1510.3 1305.5 1528.8 1337.5 C 1551.7 1377 1555.3 1386.2 1555.3 1406 C 1555.3 1414.8 1554.9 1417.7 1552.7 1423.9 C 1544.8 1446.3 1525 1459.5 1494.2 1463 C 1481.8 1464.4 1364.1 1462.7 1326.5 1460.5 C 1253.2 1456.3 1196.7 1448.7 1144.1 1435.9 C 1025.5 1407 944.5 1351.6 895 1265.6 C 869.7 1221.7 852.4 1168.1 843.5 1106.5 C 839.1 1075.9 836 1035.4 836 1008.4 L 836 995 L 799.7 995 L 763.3 995 L 762.6 1018.3 C 758.2 1165 721.6 1266.6 647.5 1337.8 C 593.6 1389.6 519.7 1424 420.5 1443.4 C 409.1 1445.6 401.2 1447 375.5 1451 C 364.4 1452.7 323.7 1457 303.5 1458.5 C 266.4 1461.2 244.7 1462.1 187 1463 C 120.3 1464.1 112.9 1464.1 103.5 1462.9 Z  M 386.5 1161.5 L 393.9 1157.6 L 386.7 1153.5 C 380.2 1149.8 379.2 1148.8 375.4 1142.1 L 371.2 1134.8 L 367.4 1142 C 363.8 1148.7 363 1149.5 356.3 1153.2 C 352.3 1155.4 349 1157.3 349 1157.5 C 349 1157.7 352.2 1159.6 356.1 1161.6 C 362.7 1165.1 363.4 1165.8 367.2 1172.7 L 371.3 1180.2 L 375.2 1172.8 C 378.9 1165.9 379.6 1165.2 386.5 1161.5 Z  M 1232.8 1172.7 C 1236.4 1166.2 1237.6 1165 1242.7 1162.2 C 1245.9 1160.5 1249.1 1158.6 1249.9 1158.1 C 1250.8 1157.5 1249.3 1156.2 1244.1 1153.4 C 1237.4 1149.8 1236.6 1149 1232.9 1142.1 L 1228.8 1134.7 L 1225.5 1140.9 C 1221.1 1149.1 1220.8 1149.4 1212.9 1153.8 L 1206.1 1157.6 L 1213.5 1161.5 C 1220.5 1165.3 1221.1 1165.9 1224.7 1172.7 C 1226.8 1176.7 1228.6 1180 1228.7 1180 C 1228.7 1180 1230.6 1176.7 1232.8 1172.7 Z  M 609.4 1052.3 C 612.7 1046 613.6 1045.2 620.2 1041.6 C 628.3 1037.2 628.3 1037.3 618.4 1032.3 C 614 1030.1 612.7 1028.7 609.6 1022.9 C 607.5 1019.1 605.5 1016 605.1 1016 C 604.7 1016 602.8 1018.9 600.9 1022.5 C 597.8 1028.5 596.9 1029.4 590.3 1033.1 C 586.3 1035.3 583 1037.3 583 1037.5 C 583 1037.7 586.3 1039.7 590.3 1041.9 C 596.8 1045.5 597.8 1046.5 601 1052.4 C 602.9 1056.1 604.8 1059 605.2 1059 C 605.6 1059 607.5 1056 609.4 1052.3 Z  M 999.1 1052.5 C 1002.2 1046.5 1003.1 1045.6 1009.8 1041.8 C 1013.9 1039.6 1016.8 1037.4 1016.3 1037 C 1015.9 1036.6 1012.6 1034.7 1009.1 1032.9 C 1003.7 1030 1002.4 1028.7 1000 1024 C 994.9 1014 995 1014 990.8 1022.3 C 987.4 1028.8 986.4 1029.9 981.8 1032.2 C 971.7 1037.3 971.7 1037.2 979.8 1041.6 C 986.4 1045.2 987.3 1046 990.6 1052.3 C 992.5 1056 994.4 1059 994.9 1059 C 995.3 1059 997.2 1056.1 999.1 1052.5 Z  M 382.1 1039 L 391.7 1036.2 L 406.6 1040.5 C 414.7 1043 421.6 1044.7 421.8 1044.5 C 422 1044.3 420.4 1037.8 418.1 1030 C 415.8 1022.3 414 1015.3 414 1014.5 C 414 1013.7 415.8 1006.7 418.1 999 C 420.4 991.2 422 984.7 421.8 984.5 C 421.6 984.3 414.8 986.1 406.6 988.5 L 391.9 992.8 L 377.2 988.5 C 369.1 986.1 362.3 984.3 362.1 984.6 C 361.8 984.9 363.5 991.7 365.9 999.8 L 370.2 1014.6 L 366.1 1028.5 C 363.8 1036.1 362 1042.9 362 1043.6 C 362 1045 361 1045.2 382.1 1039 Z  M 1193.4 1040.6 L 1208.2 1036.2 L 1223.3 1040.6 C 1231.6 1043 1238.5 1045 1238.6 1045 C 1238.7 1045 1236.8 1038.1 1234.3 1029.6 L 1229.8 1014.3 L 1233.9 1000.5 C 1238.7 984.4 1238.8 983.6 1235.8 984.6 C 1234.5 985 1227.8 987 1220.8 989.1 L 1208.1 992.8 L 1193.3 988.5 C 1185.2 986.1 1178.4 984.3 1178.2 984.5 C 1178 984.7 1179.6 991.2 1181.9 999 C 1184.2 1006.7 1186 1013.7 1186 1014.5 C 1186 1015.3 1184.2 1022.1 1182 1029.6 C 1178.3 1042.4 1177.6 1045 1178.3 1045 C 1178.4 1045 1185.2 1043 1193.4 1040.6 Z  M 836.5 965.1 C 863.6 964.4 865.6 964 871.6 958.2 C 874.5 955.3 891.1 930.4 899.9 915.8 C 902.8 910.9 905.6 907 906 907 C 906.5 907 909.9 907.6 913.7 908.4 C 933.2 912.5 978.3 918.3 1022.8 922.5 L 1030 923.2 L 1030 919.5 C 1030 913 1026 881.3 1022.9 863 C 1013.1 805.1 998.6 762.2 980.2 736.5 L 974.4 728.5 L 976.2 719 C 985 671.7 985.9 625.8 978.9 585 C 966.7 513.5 929.3 448.7 855.3 370.5 C 829.4 343.1 817.5 331.3 813.5 328.7 C 805 323.3 793.5 323.2 784.5 328.5 C 780.3 330.9 759.3 351.9 735.1 377.9 C 678.1 439.3 644.1 493 627.5 547.7 C 615.6 586.6 611.6 628.6 615.5 673.5 C 616.3 682.9 617.2 691.9 617.4 693.5 C 617.7 695.2 619.1 703.8 620.6 712.7 L 623.2 728.9 L 619.7 733.2 C 601.6 755.4 584.9 803 575.1 861 C 571.1 884.7 566.6 921.7 567.6 922.9 C 568.8 924.3 658.5 913.4 681.9 908.9 C 687.6 907.8 692.3 907 692.4 907.2 C 692.5 907.4 695.7 912.7 699.5 919 C 707.4 932.4 721.3 953.5 724.4 956.8 C 727.5 960.3 734.2 964 739.1 964.9 C 744.3 965.9 800.9 966.1 836.5 965.1 Z  M 475.4 882 C 481.4 880.3 481.6 880.3 489.3 882.5 C 493.5 883.8 497 884.5 497 884.3 C 497 884 496 880.5 494.8 876.4 L 492.7 869 L 494.9 861.4 C 496.1 857.2 496.9 853.6 496.7 853.4 C 496.5 853.2 493.1 854 489.1 855.2 C 481.3 857.5 482.2 857.6 466.8 853.3 C 465.4 852.9 465.5 853.8 467.6 860.9 L 470.1 868.9 L 467.6 877 C 465.2 884.9 465.2 885.1 467.2 884.4 C 468.3 884.1 472 883 475.4 882 Z  M 1118.5 880.9 C 1120.2 880.9 1124.3 881.8 1127.8 882.9 C 1132 884.2 1134 884.5 1134 883.7 C 1134 883 1133.1 879.4 1132 875.6 L 1130 868.6 L 1132.5 860.7 C 1134.6 853.7 1134.7 852.8 1133.2 853.3 C 1117.8 857.6 1118.8 857.5 1110.9 855.2 C 1106.9 854 1103.5 853.2 1103.3 853.4 C 1103.1 853.6 1103.9 857.2 1105.1 861.4 L 1107.3 869 L 1105.2 876.4 C 1104 880.5 1103 884 1103 884.3 C 1103 884.6 1105.8 883.9 1109.3 882.9 C 1112.7 881.8 1116.9 880.9 1118.5 880.9 Z  M 544.3 691.5 C 548.6 683.7 548.9 683.4 557.3 678.7 C 562.1 676 565.8 673.4 565.5 672.9 C 565.2 672.5 561.3 670.2 557 667.9 C 549 663.8 549 663.7 544.2 654.9 C 541.6 650 539.2 646 538.9 646 C 538.6 646 536.2 649.9 533.6 654.8 L 529 663.5 L 519.9 668.4 L 510.8 673.2 L 513.7 674.9 C 515.2 675.9 519.3 678.1 522.6 679.9 C 528.3 682.9 529.1 683.7 533.6 692 C 536.3 696.9 538.8 700.6 539.2 700.2 C 539.6 699.8 541.9 695.9 544.3 691.5 Z  M 1077.4 679.9 C 1080.8 678.1 1084.8 675.9 1086.3 674.9 L 1089.2 673.2 L 1080.1 668.4 L 1071 663.5 L 1066.3 654.6 C 1060.9 644.4 1061.4 644.4 1054.9 656.7 C 1051.5 663.1 1050.8 663.8 1043.9 667.4 C 1032.5 673.4 1032.5 673 1042.7 678.6 C 1050.1 682.8 1051.9 684.3 1053.9 688 C 1055.2 690.5 1057.4 694.5 1058.8 696.9 L 1061.2 701.3 L 1066.3 692.2 C 1071 683.7 1071.7 682.9 1077.4 679.9 Z " fill="rgb(254,254,254)"/></g></g></svg>